# xmcd
#
# Track frame offsets: 
#        150
#        9508
#        36346
#        52711
#        71234
#        88571
#        103640
#        133890
#        151947
#        167218
#        186259
#        222616
#
# Disc length: 3287 seconds
#
# Revision: 1
# Processed by: cddbd v1.5.2PL0 Copyright (c) Steve Scherf et al.
# Submitted via: ExactAudioCopy v0.99pb4
#
DISCID=a80cd50c
DTITLE=Gianluca Petrella - X-RAY
DYEAR=2001
DGENRE=Jazz
TTITLE0=Broken Head
TTITLE1=X-Ray
TTITLE2=G8
TTITLE3=Femtosecond
TTITLE4=Crunch
TTITLE5=Reflex
TTITLE6=Double Fin
TTITLE7=Ra
TTITLE8=Improvisi-zation
TTITLE9=Grandes Amigos
TTITLE10=Araucanos
TTITLE11=Data Track
EXTD=YEAR: 2001
EXTT0=
EXTT1=
EXTT2=
EXTT3=
EXTT4=
EXTT5=
EXTT6=
EXTT7=
EXTT8=
EXTT9=
EXTT10=
EXTT11=
PLAYORDER=
